<svg width="81" height="80" viewBox="0 0 81 80" fill="none" xmlns="http://www.w3.org/2000/svg">
<g filter="url(#filter0_i_62_343)">
<rect x="0.5" width="80" height="80" rx="16" fill="#4DFFD6"/>
</g>
<path d="M21.5 40C21.5 31.0433 21.5 26.565 24.2825 23.7825C27.065 21 31.5433 21 40.5 21C49.4566 21 53.935 21 56.7176 23.7825C59.5 26.565 59.5 31.0433 59.5 40C59.5 48.9566 59.5 53.435 56.7176 56.2176C53.935 59 49.4566 59 40.5 59C31.5433 59 27.065 59 24.2825 56.2176C21.5 53.435 21.5 48.9566 21.5 40Z" stroke="white" stroke-width="3"/>
<path d="M21.5 34H59.5" stroke="white" stroke-width="3" stroke-linejoin="round"/>
<path d="M30.5 28H30.509" stroke="white" stroke-width="3" stroke-linecap="round" stroke-linejoin="round"/>
<path d="M38.5 28H38.509" stroke="white" stroke-width="3" stroke-linecap="round" stroke-linejoin="round"/>
<path d="M32.5 42L34.9531 44.1144C35.9844 45.0032 36.5 45.4478 36.5 46C36.5 46.5522 35.9844 46.9968 34.9531 47.8856L32.5 50" stroke="white" stroke-width="3" stroke-linecap="round" stroke-linejoin="round"/>
<path d="M40.5 50H48.5" stroke="white" stroke-width="3" stroke-linecap="round" stroke-linejoin="round"/>
<defs>
<filter id="filter0_i_62_343" x="0.5" y="0" width="84" height="85" filterUnits="userSpaceOnUse" color-interpolation-filters="sRGB">
<feFlood flood-opacity="0" result="BackgroundImageFix"/>
<feBlend mode="normal" in="SourceGraphic" in2="BackgroundImageFix" result="shape"/>
<feColorMatrix in="SourceAlpha" type="matrix" values="0 0 0 0 0 0 0 0 0 0 0 0 0 0 0 0 0 0 127 0" result="hardAlpha"/>
<feOffset dx="4" dy="5"/>
<feGaussianBlur stdDeviation="4"/>
<feComposite in2="hardAlpha" operator="arithmetic" k2="-1" k3="1"/>
<feColorMatrix type="matrix" values="0 0 0 0 0.777746 0 0 0 0 1 0 0 0 0 0.948807 0 0 0 1 0"/>
<feBlend mode="normal" in2="shape" result="effect1_innerShadow_62_343"/>
</filter>
</defs>
</svg>
