<svg width="32" height="32" viewBox="0 0 32 32" fill="none" xmlns="http://www.w3.org/2000/svg">
<path d="M25.322 25.3307H25.3346M25.322 25.3307C24.4917 26.1541 22.987 25.949 21.9318 25.949C20.6366 25.949 20.0129 26.2023 19.0885 27.1267C18.3014 27.9139 17.2462 29.3307 16.0013 29.3307C14.7564 29.3307 13.7012 27.9139 12.9141 27.1267C11.9897 26.2023 11.366 25.949 10.0707 25.949C9.01554 25.949 7.51088 26.1541 6.68062 25.3307C5.84372 24.5009 6.04968 22.9899 6.04968 21.9279C6.04968 20.5859 5.75618 19.9689 4.80048 19.0131C3.37882 17.5915 2.668 16.8806 2.66797 15.9974C2.66798 15.1141 3.3788 14.4033 4.80044 12.9816C5.65357 12.1285 6.04968 11.2831 6.04968 10.0668C6.04968 9.0116 5.84462 7.50692 6.66797 6.67665C7.49788 5.83977 9.00877 6.04574 10.0707 6.04574C11.287 6.04574 12.1324 5.64966 12.9855 4.79656C14.4072 3.37489 15.118 2.66406 16.0013 2.66406C16.8846 2.66406 17.5954 3.37489 19.017 4.79656C19.87 5.64949 20.7153 6.04574 21.9318 6.04574C22.987 6.04574 24.4918 5.84069 25.3221 6.66406C26.1589 7.49397 25.9529 9.00485 25.9529 10.0668C25.9529 11.4088 26.2465 12.0259 27.2021 12.9816C28.6238 14.4033 29.3346 15.1141 29.3346 15.9974C29.3346 16.8806 28.6238 17.5915 27.2021 19.0131C26.2464 19.9689 25.9529 20.5859 25.9529 21.9279C25.9529 22.9899 26.1589 24.5009 25.322 25.3307Z" stroke="#4B4B4C" stroke-opacity="0.8" stroke-width="1.5"/>
<path d="M12 17.1879C12 17.1879 13.6 18.057 14.4 19.3307C14.4 19.3307 16.8 14.3307 20 12.6641" stroke="#4B4B4C" stroke-opacity="0.8" stroke-width="1.5" stroke-linecap="round" stroke-linejoin="round"/>
</svg>
