<svg
    width="199"
    height="66"
    viewBox="0 0 199 66"
    fill="none"
    xmlns="http://www.w3.org/2000/svg"
  >
    <path
      fill-rule="evenodd"
      clip-rule="evenodd"
      d="M21.4531 18.0963L36.1371 48.4146L31.3958 58.0551H40.806H48.672H54.3899C55.2974 58.0551 55.8649 56.9041 55.4118 55.9825L30.1376 4.59325C29.6839 3.67074 28.5479 3.67074 28.0942 4.59325L21.4531 18.0963Z"
      fill="#CCCCCC"
    ></path>
    <path
      fill-rule="evenodd"
      clip-rule="evenodd"
      d="M28.0927 4.59325C28.5464 3.67074 29.6824 3.67074 30.1361 4.59325L55.4103 55.9825C55.8634 56.9041 55.2959 58.0551 54.3885 58.0551H48.6705H40.8046H31.3944L36.1356 48.4146L21.4517 18.0963L28.0927 4.59325ZM19.3088 22.4534L11.9102 37.497L22.9115 58.0551H27.2909L31.8292 49.8076C32.0671 49.3749 32.0804 48.8234 31.8637 48.3759L19.3088 22.4534Z"
      fill="#4148D7"
    ></path>
    <path
      fill-rule="evenodd"
      clip-rule="evenodd"
      d="M22.9115 58.0559L11.9102 37.4977L19.3088 22.4541L31.8637 48.3767C32.0804 48.8242 32.0671 49.3757 31.8292 49.8083L27.2909 58.0559H22.9115Z"
      fill="#B8D84C"
    ></path>
    <path
      d="M22.9141 58.0557L24.0881 60.2496C24.5468 61.1069 25.6102 61.1148 26.0781 60.2644L27.2935 58.0557H22.9141Z"
      fill="#B8D84C"
    ></path>
    <path
      d="M86.5557 45.2673H82.7378V39.2095H69.3176V45.2673H65.5V32.9277C65.5 31.1264 65.7642 29.4685 66.2928 27.9541C66.8214 26.4396 67.5554 25.1373 68.4953 24.0474C69.4349 22.9574 70.5461 22.1084 71.8285 21.5003C73.1106 20.8922 74.5104 20.5882 76.0278 20.5882H84.632C84.8965 20.5882 85.1459 20.6455 85.3808 20.7603C85.6158 20.875 85.8213 21.0356 85.9976 21.2422C86.1739 21.4487 86.311 21.6896 86.4089 21.965C86.5067 22.2403 86.5557 22.5329 86.5557 22.8427V45.2673ZM69.3176 34.7349H82.7378V25.0628H76.0278C75.9102 25.0628 75.6608 25.0857 75.279 25.1316C74.907 25.166 74.4712 25.2636 73.9721 25.4242C73.4827 25.5848 72.9638 25.8315 72.4158 26.1642C71.8674 26.4969 71.3633 26.9559 70.9034 27.541C70.4432 28.1261 70.0614 28.8604 69.758 29.7439C69.4644 30.6159 69.3176 31.6771 69.3176 32.9277V34.7349ZM108.712 26.6633L101.855 35.4406L109.579 45.2673H104.322L99.2419 38.7793L94.1616 45.2673H88.8903L96.5988 35.406L89.7712 26.6633H94.9983L99.2124 32.05L103.456 26.6633H108.712ZM115.364 22.8427H111.546V18.7983H115.364V22.8427ZM115.364 45.2673H111.546V26.6633H115.364V45.2673ZM126.009 45.2673H124.306C123.758 45.2673 123.17 45.1585 122.544 44.9404C121.927 44.7224 121.35 44.3668 120.811 43.8734C120.273 43.3685 119.828 42.7203 119.475 41.9286C119.123 41.1255 118.947 40.1445 118.947 38.9856V18.7983H122.764V38.9856C122.764 39.5364 122.911 39.978 123.205 40.3107C123.498 40.6321 123.865 40.7928 124.306 40.7928H126.009V45.2673ZM143.805 38.9856C143.805 39.7544 143.722 40.4486 143.556 41.0682C143.389 41.676 143.169 42.2154 142.895 42.6857C142.621 43.1446 142.303 43.5406 141.94 43.8734C141.578 44.1947 141.197 44.4584 140.795 44.665C140.404 44.8713 140.002 45.0265 139.591 45.1298C139.19 45.2213 138.808 45.2673 138.446 45.2673H128.109V40.7928H138.417C138.935 40.7928 139.327 40.638 139.591 40.328C139.856 40.0184 139.988 39.5709 139.988 38.9856C139.939 37.7924 139.425 37.196 138.446 37.196H132.529C131.687 37.196 130.972 37.0239 130.385 36.6794C129.798 36.3352 129.318 35.905 128.946 35.3887C128.584 34.8725 128.319 34.316 128.153 33.7194C127.996 33.1228 127.918 32.5663 127.918 32.05C127.918 31.0518 128.07 30.2143 128.373 29.5374C128.677 28.849 129.059 28.2925 129.518 27.868C129.979 27.4435 130.478 27.1395 131.016 26.9559C131.554 26.7608 132.059 26.6633 132.529 26.6633H141.911V31.1379H132.558C132.362 31.1379 132.205 31.1666 132.088 31.224C131.98 31.2698 131.897 31.3387 131.838 31.4305C131.789 31.5108 131.76 31.6026 131.75 31.7058C131.74 31.7976 131.736 31.8894 131.736 31.9812C131.745 32.1647 131.775 32.3082 131.824 32.4114C131.873 32.5147 131.932 32.5893 132 32.6352C132.078 32.6811 132.161 32.7098 132.25 32.7212C132.347 32.7212 132.44 32.7212 132.529 32.7212H138.446C139.425 32.7212 140.257 32.9277 140.942 33.3408C141.627 33.7538 142.18 34.2759 142.601 34.907C143.022 35.5266 143.326 36.2035 143.512 36.9378C143.707 37.6721 143.805 38.3546 143.805 38.9856ZM163.76 38.9856C163.76 39.7544 163.677 40.4486 163.51 41.0682C163.344 41.676 163.124 42.2154 162.849 42.6857C162.575 43.1446 162.257 43.5406 161.895 43.8734C161.533 44.1947 161.151 44.4584 160.75 44.665C160.358 44.8713 159.957 45.0265 159.546 45.1298C159.144 45.2213 158.763 45.2673 158.4 45.2673H151.514C150.985 45.2673 150.408 45.1585 149.781 44.9404C149.155 44.7224 148.572 44.3668 148.034 43.8734C147.505 43.3685 147.06 42.7203 146.698 41.9286C146.345 41.1255 146.169 40.1445 146.169 38.9856V32.9277C146.169 31.7804 146.345 30.8109 146.698 30.0192C147.06 29.2161 147.505 28.5679 148.034 28.0745C148.572 27.5697 149.155 27.2083 149.781 26.9903C150.408 26.7723 150.985 26.6633 151.514 26.6633H158.4C159.379 26.6633 160.211 26.8698 160.896 27.2829C161.582 27.6959 162.135 28.2179 162.556 28.849C162.976 29.4685 163.28 30.1455 163.466 30.8798C163.662 31.614 163.76 32.2967 163.76 32.9277V38.9856ZM159.942 32.9621C159.942 32.3426 159.81 31.8837 159.546 31.5854C159.281 31.2871 158.899 31.1379 158.4 31.1379H151.543C151.034 31.1379 150.648 31.2928 150.383 31.6026C150.119 31.9009 149.987 32.3426 149.987 32.9277V38.9856C149.987 39.5709 150.119 40.0184 150.383 40.328C150.648 40.638 151.034 40.7928 151.543 40.7928H158.4C158.919 40.7928 159.306 40.638 159.56 40.328C159.815 40.0184 159.942 39.5709 159.942 38.9856V32.9621ZM181.071 31.1379H172.437V26.6633H181.071V31.1379ZM181.071 23.0664H172.467C171.948 23.0664 171.556 23.2213 171.292 23.5311C171.028 23.8294 170.896 24.2711 170.896 24.8562V45.2673H167.078V24.8562C167.078 24.0875 167.161 23.3991 167.328 22.7911C167.494 22.183 167.714 21.6495 167.988 21.1905C168.272 20.7201 168.595 20.3243 168.958 20.003C169.32 19.6703 169.696 19.4007 170.088 19.1942C170.489 18.9876 170.891 18.8385 171.292 18.7467C171.693 18.6434 172.075 18.5918 172.437 18.5918H181.071V23.0664ZM198.015 31.1379H191.349V45.2673H187.488V31.1379H182.525V26.6633H187.488V20.5882H191.349V26.6633H198.015V31.1379Z"
      fill="black"
    ></path>
  </svg>